<?xml version="1.0" encoding="UTF-8" standalone="no"?><!DOCTYPE svg PUBLIC "-//W3C//DTD SVG 1.1//EN" "http://www.w3.org/Graphics/SVG/1.1/DTD/svg11.dtd"><svg width="100%" height="100%" viewBox="0 0 3334 3334" version="1.1" xmlns="http://www.w3.org/2000/svg" xmlns:xlink="http://www.w3.org/1999/xlink" xml:space="preserve" xmlns:serif="http://www.serif.com/" style="fill-rule:evenodd;clip-rule:evenodd;stroke-linecap:round;stroke-linejoin:round;"><path d="M2613.89,1409.03l-0,-79.167c16.593,-23.112 35.183,-44.723 55.555,-64.583c-35.416,-50.695 -94.444,-74.306 -89.583,-170.834c-20.213,-164.744 -117.802,-310.353 -262.5,-391.666c-214.583,-195.834 -615.972,-272.222 -928.472,-154.861c-470.139,18.75 -678.472,424.305 -740.278,597.916c-97.222,422.917 59.028,788.195 224.306,920.834c-124.306,37.5 -245.834,76.389 -152.778,293.75c81.437,101.242 191.22,175.962 315.278,214.583c103.472,6.25 225,59.722 245.139,-148.611c145.833,-0 538.194,438.194 694.444,509.722c322.917,88.889 478.472,-240.278 918.75,-263.194c-6.432,-133.23 13.875,-266.409 59.722,-391.667l-93.055,-15.972c-240.278,150.694 -500,309.028 -795.139,479.166c-109.722,-145.833 -113.195,-282.638 -20.139,-446.527c185.417,-145.139 359.722,-277.778 704.167,-309.723c-60.061,-101.337 -99.917,-213.361 -117.362,-329.861" style="fill:#fa0;fill-rule:nonzero;stroke:#000;stroke-width:20.83px;"/><path d="M2781.94,2313.19l-83.333,-128.472c14.583,-69.444 81.25,-104.861 176.389,-107.639c13.889,93.75 0,131.945 32.639,195.834" style="fill:#fff;fill-rule:nonzero;stroke:#000;stroke-width:20.83px;"/><path d="M2638.89,2400c-99.306,-97.222 -121.528,-213.889 -133.333,-365.972" style="fill:none;fill-rule:nonzero;stroke:#000;stroke-width:20.83px;"/><path d="M2291.67,2611.11l-76.389,-111.111l168.75,-138.889l33.333,172.222" style="fill:#fdfdfd;fill-rule:nonzero;stroke:#000;stroke-width:20.83px;"/><path d="M2632.64,1412.5c216.667,35.417 138.889,123.611 56.944,208.333l-219.444,126.389c-364.583,100.695 -405.556,-407.639 -52.778,-377.778l215.278,43.056Z" style="fill:#fff;fill-rule:nonzero;stroke:#000;stroke-width:20.83px;"/><path d="M1904.17,1477.08c80.555,57.639 172.222,113.195 178.472,179.861c22.222,130.556 -16.667,138.889 -43.056,170.834c-76.383,81.726 -171.824,143.286 -277.777,179.166c-372.917,76.389 -511.806,-152.777 -551.389,-325.694c6.944,-318.75 277.777,-294.444 325.694,-293.056c175.695,-29.166 269.445,34.723 368.056,88.889Z" style="fill:#fff;fill-rule:nonzero;stroke:#000;stroke-width:20.83px;"/><path d="M2351.39,724.306l81.944,-138.889l-154.861,83.333" style="fill:none;fill-rule:nonzero;stroke:#000;stroke-width:20.83px;"/><path d="M1270.83,561.111l-74.305,-117.361l7.639,-61.806l108.333,47.223l6.944,126.389" style="fill:none;fill-rule:nonzero;stroke:#000;stroke-width:20.83px;"/><path d="M630.556,1597.22c-63.729,5.551 -127.712,7.637 -191.667,6.25c-91.667,-31.944 -61.111,-75.694 -0,-96.528c61.932,-5.092 124.179,-5.092 186.111,0l151.389,29.167c38.194,7.639 95.139,18.75 -4.861,42.361c-46.413,10.017 -93.555,16.287 -140.972,18.75Z" style="fill:none;fill-rule:nonzero;stroke:#000;stroke-width:20.83px;"/><path d="M665.278,1722.92l-113.889,57.639l134.028,-0" style="fill:none;fill-rule:nonzero;stroke:#000;stroke-width:20.83px;"/><path d="M1661.11,1463.89c-91.371,15.71 -175.749,59.111 -241.667,124.305c-19.444,20.139 -22.916,85.417 33.334,152.084c105.726,98.296 255.274,134.893 394.444,96.528c45.939,-22.955 88.474,-52.168 126.389,-86.806c22.4,-21.72 27.542,-55.997 12.5,-83.333c-23.76,-45.079 -58.668,-83.334 -101.389,-111.111c-61.34,-56.019 -140.601,-88.511 -223.611,-91.667Z" style="fill:none;fill-rule:nonzero;stroke:#000;stroke-width:20.83px;"/><path d="M2493.06,1468.06c-0,-0 -144.445,20.833 -164.584,77.083c-12.5,36.111 9.722,111.111 43.056,93.055c88.194,-47.916 214.583,-76.388 270.139,-110.416c55.555,-34.028 -107.639,-69.445 -148.611,-59.722Z" style="fill:none;fill-rule:nonzero;stroke:#000;stroke-width:20.83px;"/><path d="M2152.78,763.889c19.444,19.444 -25,148.611 -53.472,119.444c0.694,-3.472 35.416,-143.055 53.472,-119.444Z" style="fill:none;fill-rule:nonzero;stroke:#000;stroke-width:20.83px;"/><path d="M1542.36,770.833c105.833,11.947 209.831,36.664 309.722,73.611c-35.416,27.778 -138.889,6.945 -202.083,0c-86.111,-0.694 -115.278,-28.472 -107.639,-73.611Z" style="fill:none;fill-rule:nonzero;stroke:#000;stroke-width:20.83px;"/><path d="M1928.47,713.194c27.084,4.167 46.528,8.334 51.389,52.778c-24.878,-7.843 -44.211,-27.699 -51.389,-52.778Z" style="fill:none;fill-rule:nonzero;stroke:#000;stroke-width:20.83px;"/></svg>